<?xml version="1.0" encoding="UTF-8"?>
<svg width="96px" height="14px" viewBox="0 0 96 14" version="1.1" xmlns="http://www.w3.org/2000/svg" xmlns:xlink="http://www.w3.org/1999/xlink">
    <title>Group 21</title>
    <defs>
        <polygon id="path-1" points="0 0.00842727273 5.97124737 0.00842727273 5.97124737 8.95868182 0 8.95868182"></polygon>
        <polygon id="path-3" points="0.0917625 0.118678161 0.8926375 0.118678161 0.8926375 14 0.0917625 14"></polygon>
    </defs>
    <g id="🧰-Symbols" stroke="none" stroke-width="1" fill="none" fill-rule="evenodd">
        <g id="Group-21">
            <g id="Group-3" transform="translate(0.000000, 3.000000)">
                <mask id="mask-2" fill="white">
                    <use xlink:href="#path-1"></use>
                </mask>
                <g id="Clip-2"></g>
                <path d="M0.0863526316,8.86917273 C0.0287210526,8.80977273 -1.57894737e-05,8.73711818 -1.57894737e-05,8.65186364 L-1.57894737e-05,0.328172727 C-1.57894737e-05,0.234409091 0.0266684211,0.157663636 0.0801947368,0.0979363636 C0.133721053,0.0385363636 0.205563158,0.00842727273 0.296036842,0.00842727273 L5.66272105,0.00842727273 C5.75335263,0.00842727273 5.82724737,0.0385363636 5.88503684,0.0979363636 C5.94235263,0.157663636 5.97124737,0.234409091 5.97124737,0.328172727 L5.97124737,1.24862727 C5.97124737,1.33404545 5.94235263,1.40653636 5.88503684,1.4661 C5.82724737,1.52582727 5.75335263,1.55560909 5.66272105,1.55560909 L1.71487895,1.55560909 L1.71487895,3.95942727 L5.41608947,3.95942727 C5.50640526,3.95942727 5.58061579,3.98920909 5.63808947,4.04877273 C5.69556316,4.10866364 5.72445789,4.18099091 5.72445789,4.26624545 L5.72445789,5.18686364 C5.72445789,5.27228182 5.69556316,5.34477273 5.63808947,5.40417273 C5.58061579,5.4639 5.50640526,5.49368182 5.41608947,5.49368182 L1.71487895,5.49368182 L1.71487895,8.65186364 C1.71487895,8.73711818 1.68598421,8.80977273 1.62866842,8.86917273 C1.57087895,8.9289 1.49698421,8.95868182 1.40635263,8.95868182 L0.296036842,8.95868182 C0.213931579,8.95868182 0.143826316,8.9289 0.0863526316,8.86917273" id="Fill-1" fill="#000000" mask="url(#mask-2)"></path>
            </g>
            <path d="M15.4329357,10.0501973 C15.7859766,9.7169647 15.9761424,9.2043976 16.0032592,8.51265598 C16.021511,8.01272708 16.0305499,7.67501511 16.0305499,7.5 C16.0305499,7.30850723 16.021511,6.97095524 16.0032592,6.487504 C15.9761424,5.80424117 15.7814571,5.29375378 15.4193773,4.95636176 C15.0571236,4.61880977 14.5817091,4.45003377 13.9933077,4.45003377 C13.3955196,4.45003377 12.9155857,4.61880977 12.5536797,4.95636176 C12.1912522,5.29375378 12.0010864,5.80424117 11.9830085,6.487504 C11.9739695,6.7293896 11.9694501,7.06678161 11.9694501,7.5 C11.9694501,7.92521952 11.9739695,8.26261154 11.9830085,8.51265598 C12.0010864,9.19607878 12.1889925,9.7064062 12.5467266,10.0439582 C12.904287,10.3813502 13.3864807,10.5501262 13.9933077,10.5501262 C14.5997871,10.5501262 15.0798948,10.3835899 15.4329357,10.0501973 M11.1001456,11.1377226 C10.4119679,10.5626044 10.0497143,9.7084859 10.0135584,8.5750471 C10.0045195,8.33364144 10,7.97945181 10,7.51247823 C10,7.03750578 10.0045195,6.67931672 10.0135584,6.43743112 C10.0497143,5.3294287 10.4211807,4.47930961 11.1272625,3.88755377 C11.8336918,3.29595791 12.7888664,3 13.9933077,3 C15.1885362,3 16.1412772,3.29595791 16.8522261,3.88755377 C17.5630011,4.47930961 17.9363796,5.3294287 17.9727093,6.43743112 C17.9907872,6.92088236 18,7.27939138 18,7.51247823 C18,7.73756621 17.9907872,8.09191582 17.9727093,8.5750471 C17.9363796,9.7084859 17.5722139,10.5626044 16.8793429,11.1377226 C16.1868196,11.7126809 15.2245182,12 13.9933077,12 C12.7525368,12 11.7881494,11.7126809 11.1001456,11.1377226" id="Fill-4" fill="#000000"></path>
            <path d="M23.082689,11.922828 C23.027346,11.8714897 23,11.8071523 23,11.7299803 C23,11.6957547 23.0169285,11.6444164 23.0509482,11.5758008 L25.8871165,7.40999342 L23.2288598,3.42436376 C23.1948401,3.37302545 23.1780744,3.3215226 23.1780744,3.27001975 C23.1780744,3.19284774 23.2055831,3.12851031 23.2607634,3.07717201 C23.3157809,3.02566915 23.3773094,3 23.445186,3 L24.7807439,3 C24.9332628,3 25.0646211,3.08161474 25.1749817,3.24418605 L27.0319036,5.99572181 L28.9013592,3.24418605 C28.9946285,3.08161474 29.1259868,3 29.2957597,3 L30.554814,3 C30.6225279,3 30.6838935,3.02566915 30.7392366,3.07717201 C30.7942541,3.12851031 30.8219256,3.19284774 30.8219256,3.27001975 C30.8219256,3.30440983 30.8046716,3.35574814 30.7709775,3.42436376 L28.1128835,7.40999342 L30.9617482,11.5758008 C30.9873037,11.6271391 31,11.6786419 31,11.7299803 C31,11.8071523 30.9744445,11.8714897 30.9236592,11.922828 C30.872711,11.9741663 30.8092293,12 30.7328884,12 L29.3721006,12 C29.2194189,12 29.0878978,11.922828 28.9777,11.7686485 L26.9682591,8.87560333 L24.984211,11.7686485 C24.8738504,11.922828 24.7424921,12 24.5898104,12 L23.2671116,12 C23.199235,12 23.1377065,11.9741663 23.082689,11.922828" id="Fill-6" fill="#000000"></path>
            <g id="Group-10" transform="translate(36.000000, 0.000000)">
                <mask id="mask-4" fill="white">
                    <use xlink:href="#path-3"></use>
                </mask>
                <g id="Clip-9"></g>
                <path d="M0.1503875,13.9183333 C0.1113875,13.8636207 0.0917625,13.7944253 0.0917625,13.7107471 L0.0917625,0.407850575 C0.0917625,0.324172414 0.1113875,0.254977011 0.1503875,0.200264368 C0.1893875,0.146034483 0.2415125,0.118678161 0.3066375,0.118678161 L0.6681375,0.118678161 C0.7330125,0.118678161 0.7867625,0.146034483 0.8292625,0.200264368 C0.8715125,0.254977011 0.8926375,0.324172414 0.8926375,0.407850575 L0.8926375,13.7107471 C0.8926375,13.7944253 0.8715125,13.8636207 0.8292625,13.9183333 C0.7867625,13.9727241 0.7330125,14.0000805 0.6681375,14.0000805 L0.3066375,14.0000805 C0.2415125,14.0000805 0.1893875,13.9727241 0.1503875,13.9183333" id="Fill-8" fill="#000000" mask="url(#mask-4)"></path>
            </g>
            <path d="M42.825273,11.100128 C42.3121536,10.5000533 42.0408212,9.69600768 42.011133,8.68751111 C42.0035683,8.43746667 42,8.04184294 42,7.5 C42,6.95831704 42.0035683,6.56237335 42.011133,6.31248889 C42.0408212,5.30431228 42.3121536,4.49994667 42.825273,3.900032 C43.3382496,3.29995734 44.0593287,3 44.9887956,3 C45.6206675,3 46.1524847,3.13342102 46.5836763,3.39994312 C47.0148679,3.66678517 47.336299,3.98114046 47.5483978,4.3436489 C47.7602112,4.70631732 47.87354,5.02915141 47.8885268,5.31247112 L47.8885268,5.33742757 C47.8885268,5.40429806 47.8661179,5.45837037 47.8215857,5.49996445 C47.7769108,5.54171851 47.7212456,5.56235558 47.6543045,5.56235558 L47.4089493,5.56235558 C47.3420082,5.56235558 47.2936223,5.54587792 47.2639342,5.51244267 C47.234246,5.47932738 47.2044152,5.4124569 47.174727,5.31247112 C47.048267,4.87093391 46.8047672,4.49994667 46.4442277,4.19998933 C46.0835454,3.900032 45.5984014,3.74997334 44.9887956,3.74997334 C44.2972619,3.74997334 43.7525989,3.96242312 43.3549492,4.38748267 C42.9571568,4.81254222 42.7433451,5.47484802 42.7137997,6.37488002 C42.706235,6.62492446 42.7026667,7.0000711 42.7026667,7.5 C42.7026667,8.00008888 42.706235,8.37507554 42.7137997,8.62496001 C42.7433451,9.524992 42.9571568,10.1876178 43.3549492,10.6125173 C43.7525989,11.0374169 44.2972619,11.2500267 44.9887956,11.2500267 C45.6803292,11.2500267 46.2378381,11.029418 46.6617504,10.5875609 C47.0855199,10.1458637 47.2973333,9.49187671 47.2973333,8.62496001 L47.2973333,7.98761065 L45.3567571,7.98761065 C45.2825368,7.98761065 45.2230178,7.9605745 45.1783429,7.90634221 C45.1338107,7.85210992 45.1115446,7.78347968 45.1115446,7.69997156 L45.1115446,7.52495645 C45.1115446,7.44176828 45.1338107,7.37313804 45.1783429,7.31874578 C45.2230178,7.26467347 45.2825368,7.23747734 45.3567571,7.23747734 L47.7435117,7.23747734 C47.825154,7.23747734 47.8885268,7.26243379 47.933059,7.31250667 C47.9777339,7.36241957 48,7.43344946 48,7.52495645 L48,8.62496001 C48,9.29174517 47.880962,9.8793416 47.6431715,10.3875893 C47.4050955,10.895997 47.0594001,11.2917807 46.6059424,11.5751004 C46.1524847,11.8584201 45.6133882,12 44.9887956,12 C44.0593287,12 43.3382496,11.7000427 42.825273,11.100128" id="Fill-11" fill="#000000"></path>
            <path d="M57.0120271,7.42282799 C57.7108347,7.42282799 58.2307771,7.27078763 58.572317,6.96654234 C58.9135485,6.66229706 59.0842414,6.20584686 59.0842414,5.59719175 C59.0842414,4.98870118 58.9135485,4.53225099 58.572317,4.22784116 C58.2307771,3.92376042 57.7108347,3.77155551 57.0120271,3.77155551 L54.7590975,3.77155551 L54.7590975,7.42282799 L57.0120271,7.42282799 Z M54.072317,11.922828 C54.0240543,11.8714897 54,11.8030386 54,11.7171457 L54,3.29585344 C54,3.21012505 54.0240543,3.13953488 54.072317,3.08358929 C54.1204256,3.0279728 54.1847245,3 54.2652138,3 L57.072317,3 C57.9398129,3 58.6184211,3.21851689 59.1084498,3.65571523 C59.5981702,4.09291356 59.8433388,4.7400724 59.8433388,5.59719175 C59.8433388,6.27446248 59.6868318,6.82075472 59.3733553,7.23639754 C59.0601871,7.65236946 58.6102488,7.93292014 58.0240029,8.07870777 L59.9639186,11.6014699 C59.9879729,11.6529728 60,11.7001975 60,11.7428148 C60,11.811595 59.9759457,11.8714897 59.927683,11.922828 C59.8795744,11.9743308 59.8231394,12 59.7589947,12 L59.6145148,12 C59.4940892,12 59.4035773,11.9723563 59.3432874,11.9164107 C59.2831517,11.8607942 59.2208573,11.7730913 59.1565584,11.6529728 L57.2408512,8.1943835 L54.7590975,8.1943835 L54.7590975,11.7171457 C54.7590975,11.8030386 54.7328845,11.8714897 54.6807669,11.922828 C54.6283409,11.9743308 54.5620374,12 54.4820107,12 L54.2652138,12 C54.1847245,12 54.1204256,11.9743308 54.072317,11.922828 L54.072317,11.922828 Z" id="Fill-13" fill="#000000"></path>
            <path d="M70.6157628,10.5688435 C71.0186551,10.1146681 71.2352856,9.42100679 71.2655098,8.48753955 C71.2805495,7.98761065 71.2880694,7.65853745 71.2880694,7.5 C71.2880694,7.34194248 71.2805495,7.01254933 71.2655098,6.51246045 C71.2352856,5.57931316 71.0169197,4.88549184 70.6101229,4.43115646 C70.2033261,3.97714103 69.6646421,3.74997334 68.9943601,3.74997334 C68.3236443,3.74997334 67.7852495,3.97714103 67.3784526,4.43115646 C66.9716558,4.88549184 66.7531453,5.57931316 66.7230658,6.51246045 C66.7154013,6.76266487 66.711786,7.09173806 66.711786,7.5 C66.711786,7.90842191 66.7154013,8.23765509 66.7230658,8.48753955 C66.7531453,9.42100679 66.9697758,10.1146681 67.3728127,10.5688435 C67.775705,11.0231789 68.3164136,11.2501866 68.9943601,11.2501866 C69.6723066,11.2501866 70.212726,11.0231789 70.6157628,10.5688435 M66.0112798,8.55009065 C66.0036153,8.30004622 66,7.95017597 66,7.5 C66,7.049984 66.0036153,6.70011376 66.0112798,6.44990935 C66.0412148,5.3167905 66.3200289,4.45835259 66.8472885,3.87507554 C67.3745481,3.2917985 68.0903832,3 68.9943601,3 C69.8981923,3 70.6137383,3.2917985 71.1412871,3.87507554 C71.668402,4.45835259 71.9472162,5.3167905 71.9774403,6.44990935 C71.9924801,6.94999822 72,7.30002844 72,7.5 C72,7.69997156 71.9924801,8.05016175 71.9774403,8.55009065 C71.9246565,10.8500835 70.9302965,12 68.9943601,12 C67.0581345,12 66.0637744,10.8500835 66.0112798,8.55009065" id="Fill-15" fill="#000000"></path>
            <path d="M77.7747515,11.1190944 C77.2581014,10.531824 77,9.63810228 77,8.43809146 L77,3.29152622 C77,3.20716693 77.0232604,3.1374083 77.0697813,3.0822503 C77.1164513,3.027579 77.1784791,3 77.256163,3 L77.4659543,3 C77.5513917,3 77.6172962,3.02530779 77.6639662,3.07592336 C77.7104871,3.12670116 77.7338966,3.19856878 77.7338966,3.29152622 L77.7338966,8.47605314 C77.7338966,9.40578979 77.9320577,10.0986715 78.3280815,10.5548606 C78.7241054,11.0112119 79.2833996,11.2394686 80.0058151,11.2394686 C80.720328,11.2394686 81.2755964,11.0112119 81.6717694,10.5548606 C82.0679423,10.0986715 82.2659543,9.40578979 82.2659543,8.47605314 L82.2659543,3.29152622 C82.2659543,3.19856878 82.291004,3.12670116 82.3416998,3.07592336 C82.3920974,3.02530779 82.4560636,3 82.5338966,3 L82.7435388,3 C82.8212227,3 82.8835487,3.027579 82.9300696,3.0822503 C82.9767396,3.1374083 83,3.20716693 83,3.29152622 L83,8.43809146 C83,9.64670043 82.7435388,10.5422067 82.2310636,11.1254213 C81.7182903,11.7084738 80.9766402,12 80.0058151,12 C79.0346918,12 78.2911034,11.706527 77.7747515,11.1190944" id="Fill-17" fill="#000000"></path>
            <path d="M93.1515669,7.55133831 C93.8464164,7.55133831 94.3676699,7.39057701 94.7151722,7.06921896 C95.0625194,6.7478609 95.2364257,6.27857613 95.2364257,5.66152918 C95.2364257,5.04431768 95.0625194,4.57503291 94.7151722,4.25351031 C94.3676699,3.93215226 93.8464164,3.77139096 93.1515669,3.77139096 L90.7635743,3.77139096 L90.7635743,7.55133831 L93.1515669,7.55133831 Z M90.0726032,11.922828 C90.0242011,11.8713251 90,11.8028741 90,11.7171457 L90,3.29585344 C90,3.21012505 90.0242011,3.13953488 90.0726032,3.08358929 C90.1211604,3.0279728 90.1856966,3 90.2665219,3 L93.2122246,3 C94.0767918,3 94.7576792,3.22937692 95.2547316,3.68796621 C95.7516289,4.14655551 96,4.80440983 96,5.66152918 C96,6.51864853 95.7516289,7.17650285 95.2547316,7.6349276 C94.7576792,8.09368144 94.0767918,8.32289381 93.2122246,8.32289381 L90.7635743,8.32289381 L90.7635743,11.7171457 C90.7635743,11.8028741 90.7372014,11.8713251 90.6847657,11.922828 C90.632175,11.9741663 90.565467,12 90.4847968,12 L90.2665219,12 C90.1856966,12 90.1211604,11.9741663 90.0726032,11.922828 L90.0726032,11.922828 Z" id="Fill-19" fill="#000000"></path>
        </g>
    </g>
</svg>