<?xml version="1.0" encoding="UTF-8"?>
<svg id="Layer_1" data-name="Layer 1" xmlns="http://www.w3.org/2000/svg" xmlns:xlink="http://www.w3.org/1999/xlink" viewBox="0 0 96 13.88">
  <defs>
    <style>
      .cls-1 {
        fill: #fff;
        fill-rule: evenodd;
      }

      .cls-2 {
        mask: url(#mask-1);
      }

      .cls-2, .cls-3 {
        fill: none;
      }

      .cls-3 {
        mask: url(#mask);
      }
    </style>
    <mask id="mask" x="0" y="2.89" width="5.97" height="8.95" maskUnits="userSpaceOnUse">
      <g id="mask-2">
        <polygon id="path-1" class="cls-1" points="0 2.89 5.97 2.89 5.97 11.84 0 11.84 0 2.89"/>
      </g>
    </mask>
    <mask id="mask-1" x="36.09" y="0" width=".8" height="13.88" maskUnits="userSpaceOnUse">
      <g id="mask-4">
        <polygon id="path-3" class="cls-1" points="36.09 0 36.89 0 36.89 13.88 36.09 13.88 36.09 0"/>
      </g>
    </mask>
  </defs>
  <g id="_-Symbols" data-name="🧰-Symbols">
    <g id="Group-21">
      <g id="Group-3">
        <g class="cls-3">
          <path id="Fill-1" class="cls-1" d="m.09,11.75c-.06-.06-.09-.13-.09-.22V3.21c0-.09.03-.17.08-.23.05-.06.13-.09.22-.09h5.37c.09,0,.16.03.22.09.06.06.09.14.09.23v.92c0,.09-.03.16-.09.22-.06.06-.13.09-.22.09H1.71v2.4h3.7c.09,0,.16.03.22.09.06.06.09.13.09.22v.92c0,.09-.03.16-.09.22-.06.06-.13.09-.22.09H1.71v3.16c0,.09-.03.16-.09.22-.06.06-.13.09-.22.09H.3c-.08,0-.15-.03-.21-.09"/>
        </g>
      </g>
      <path id="Fill-4" class="cls-1" d="m15.43,9.93c.35-.33.54-.85.57-1.54.02-.5.03-.84.03-1.01,0-.19,0-.53-.03-1.01-.03-.68-.22-1.19-.58-1.53-.36-.34-.84-.51-1.43-.51s-1.08.17-1.44.51c-.36.34-.55.85-.57,1.53,0,.24-.01.58-.01,1.01s0,.76.01,1.01c.02.68.21,1.19.56,1.53.36.34.84.51,1.45.51s1.09-.17,1.44-.5m-4.33,1.09c-.69-.58-1.05-1.43-1.09-2.56,0-.24-.01-.6-.01-1.06s0-.83.01-1.08c.04-1.11.41-1.96,1.11-2.55.71-.59,1.66-.89,2.87-.89s2.15.3,2.86.89c.71.59,1.08,1.44,1.12,2.55.02.48.03.84.03,1.08s0,.58-.03,1.06c-.04,1.13-.4,1.99-1.09,2.56-.69.57-1.65.86-2.89.86s-2.21-.29-2.89-.86"/>
      <path id="Fill-6" class="cls-1" d="m23.08,11.8c-.06-.05-.08-.12-.08-.19,0-.03.02-.09.05-.15l2.84-4.17-2.66-3.99c-.03-.05-.05-.1-.05-.15,0-.08.03-.14.08-.19.06-.05.12-.08.18-.08h1.34c.15,0,.28.08.39.24l1.86,2.75,1.87-2.75c.09-.16.22-.24.39-.24h1.26c.07,0,.13.03.18.08.06.05.08.12.08.19,0,.03-.02.09-.05.15l-2.66,3.99,2.85,4.17c.03.05.04.1.04.15,0,.08-.03.14-.08.19-.05.05-.11.08-.19.08h-1.36c-.15,0-.28-.08-.39-.23l-2.01-2.89-1.98,2.89c-.11.15-.24.23-.39.23h-1.32c-.07,0-.13-.03-.18-.08"/>
      <g id="Group-10">
        <g class="cls-2">
          <path id="Fill-8" class="cls-1" d="m36.15,13.8c-.04-.05-.06-.12-.06-.21V.29c0-.08.02-.15.06-.21.04-.05.09-.08.16-.08h.36c.06,0,.12.03.16.08.04.05.06.12.06.21v13.3c0,.08-.02.15-.06.21-.04.05-.1.08-.16.08h-.36c-.07,0-.12-.03-.16-.08"/>
        </g>
      </g>
      <path id="Fill-11" class="cls-1" d="m42.83,10.98c-.51-.6-.78-1.4-.81-2.41,0-.25-.01-.65-.01-1.19s0-.94.01-1.19c.03-1.01.3-1.81.81-2.41.51-.6,1.23-.9,2.16-.9.63,0,1.16.13,1.59.4.43.27.75.58.96.94.21.36.33.69.34.97v.02c0,.07-.02.12-.07.16-.04.04-.1.06-.17.06h-.25c-.07,0-.12-.02-.15-.05-.03-.03-.06-.1-.09-.2-.13-.44-.37-.81-.73-1.11-.36-.3-.85-.45-1.46-.45-.69,0-1.24.21-1.63.64-.4.43-.61,1.09-.64,1.99,0,.25-.01.63-.01,1.13s0,.88.01,1.12c.03.9.24,1.56.64,1.99.4.42.94.64,1.63.64s1.25-.22,1.67-.66c.42-.44.64-1.1.64-1.96v-.64h-1.94c-.07,0-.13-.03-.18-.08-.04-.05-.07-.12-.07-.21v-.18c0-.08.02-.15.07-.21.04-.05.1-.08.18-.08h2.39c.08,0,.15.02.19.08.04.05.07.12.07.21v1.1c0,.67-.12,1.25-.36,1.76-.24.51-.58.9-1.04,1.19-.45.28-.99.42-1.62.42-.93,0-1.65-.3-2.16-.9"/>
      <path id="Fill-13" class="cls-1" d="m57.01,7.3c.7,0,1.22-.15,1.56-.46.34-.3.51-.76.51-1.37s-.17-1.06-.51-1.37c-.34-.3-.86-.46-1.56-.46h-2.25v3.65h2.25Zm-2.94,4.5c-.05-.05-.07-.12-.07-.21V3.18c0-.09.02-.16.07-.21.05-.06.11-.08.19-.08h2.81c.87,0,1.55.22,2.04.66.49.44.73,1.08.73,1.94,0,.68-.16,1.22-.47,1.64-.31.42-.76.7-1.35.84l1.94,3.52c.02.05.04.1.04.14,0,.07-.02.13-.07.18-.05.05-.1.08-.17.08h-.14c-.12,0-.21-.03-.27-.08-.06-.06-.12-.14-.19-.26l-1.92-3.46h-2.48v3.52c0,.09-.03.15-.08.21-.05.05-.12.08-.2.08h-.22c-.08,0-.14-.03-.19-.08h0Z"/>
      <path id="Fill-15" class="cls-1" d="m70.62,10.45c.4-.45.62-1.15.65-2.08.02-.5.02-.83.02-.99s0-.49-.02-.99c-.03-.93-.25-1.63-.66-2.08-.41-.45-.95-.68-1.62-.68s-1.21.23-1.62.68c-.41.45-.63,1.15-.66,2.08,0,.25-.01.58-.01.99s0,.74.01.99c.03.93.25,1.63.65,2.08.4.45.94.68,1.62.68s1.22-.23,1.62-.68m-4.6-2.02c0-.25-.01-.6-.01-1.05s0-.8.01-1.05c.03-1.13.31-1.99.84-2.57s1.24-.88,2.15-.88,1.62.29,2.15.88c.53.58.81,1.44.84,2.57.02.5.02.85.02,1.05s0,.55-.02,1.05c-.05,2.3-1.05,3.45-2.98,3.45s-2.93-1.15-2.98-3.45"/>
      <path id="Fill-17" class="cls-1" d="m77.77,11c-.52-.59-.77-1.48-.77-2.68V3.17c0-.08.02-.15.07-.21.05-.05.11-.08.19-.08h.21c.09,0,.15.03.2.08.05.05.07.12.07.22v5.18c0,.93.2,1.62.59,2.08.4.46.96.68,1.68.68s1.27-.23,1.67-.68c.4-.46.59-1.15.59-2.08V3.17c0-.09.03-.16.08-.22.05-.05.11-.08.19-.08h.21c.08,0,.14.03.19.08.05.06.07.12.07.21v5.15c0,1.21-.26,2.1-.77,2.69-.51.58-1.25.87-2.23.87s-1.71-.29-2.23-.88"/>
      <path id="Fill-19" class="cls-1" d="m93.15,7.43c.69,0,1.22-.16,1.56-.48.35-.32.52-.79.52-1.41s-.17-1.09-.52-1.41c-.35-.32-.87-.48-1.56-.48h-2.39v3.78h2.39Zm-3.08,4.37c-.05-.05-.07-.12-.07-.21V3.18c0-.09.02-.16.07-.21.05-.06.11-.08.19-.08h2.95c.86,0,1.55.23,2.04.69.5.46.75,1.12.75,1.97s-.25,1.51-.75,1.97c-.5.46-1.18.69-2.04.69h-2.45v3.39c0,.09-.03.15-.08.21-.05.05-.12.08-.2.08h-.22c-.08,0-.15-.03-.19-.08h0Z"/>
    </g>
  </g>
</svg>